<svg width="33" height="31" viewBox="0 0 33 31" fill="none" xmlns="http://www.w3.org/2000/svg">
<path d="M16.9062 1.9375C10.2786 1.9375 4.90625 7.14201 4.90625 13.5625C4.90625 16.7716 6.24845 19.6772 8.41925 21.7808C10.5907 23.8855 15.7063 26.9312 16.0063 30.1281C16.0512 30.6075 16.4094 31 16.9062 31C17.4031 31 17.7613 30.6075 17.8062 30.1281C18.1062 26.9312 23.2218 23.8855 25.3932 21.7808C27.564 19.6772 28.9062 16.7716 28.9062 13.5625C28.9062 7.14201 23.5338 1.9375 16.9062 1.9375Z" fill="white"/>
<path d="M16.907 17.6315C19.2266 17.6315 21.107 15.8099 21.107 13.5628C21.107 11.3157 19.2266 9.49402 16.907 9.49402C14.5875 9.49402 12.707 11.3157 12.707 13.5628C12.707 15.8099 14.5875 17.6315 16.907 17.6315Z" fill="#806985"/>
</svg>
